<?xml version="1.0" encoding="UTF-8" standalone="no" ?>
<!DOCTYPE svg PUBLIC "-//W3C//DTD SVG 1.1//EN" "http://www.w3.org/Graphics/SVG/1.1/DTD/svg11.dtd">
<svg xmlns="http://www.w3.org/2000/svg" xmlns:xlink="http://www.w3.org/1999/xlink" version="1.1" width="1100" height="300" viewBox="0 0 1100 300" xml:space="preserve">
<desc>Created with Fabric.js 5.2.4</desc>
<defs>
</defs>
<rect x="0" y="0" width="100%" height="100%" fill="transparent"></rect>
<g transform="matrix(1 0 0 1 550 150)" id="e42448e5-1dc6-4d89-879e-a2c3caec5c2e"  >
<rect style="stroke: none; stroke-width: 1; stroke-dasharray: none; stroke-linecap: butt; stroke-dashoffset: 0; stroke-linejoin: miter; stroke-miterlimit: 4; fill: rgb(255,255,255); fill-rule: nonzero; opacity: 1; visibility: hidden;" vector-effect="non-scaling-stroke"  x="-550" y="-150" rx="0" ry="0" width="1100" height="300" />
</g>
<g transform="matrix(Infinity NaN NaN Infinity 0 0)" id="a491ab43-c672-49f8-b0ec-a249c97abd70"  >
</g>
<g transform="matrix(0.92 0 0 0.92 147.78 150)"  >
<g style="" vector-effect="non-scaling-stroke"   >
		<g transform="matrix(1 0 0 1 0 0.08)"  >
<path style="stroke: none; stroke-width: 1; stroke-dasharray: none; stroke-linecap: butt; stroke-dashoffset: 0; stroke-linejoin: miter; stroke-miterlimit: 4; fill: rgb(19,109,169); fill-rule: nonzero; opacity: 1;" vector-effect="non-scaling-stroke"  transform=" translate(-128.41, -147.88)" d="M 84.79 47.571 C 33.31 69.438 0.91 112.32 0.91 167.417 C 0.91 237.833 57.992999999999995 294.918 128.412 294.918 C 198.828 294.918 255.913 237.833 255.913 167.417 C 255.913 82.754 177.25 49.09700000000001 177.25 49.09700000000001 C 177.25 49.09700000000001 160.068 41.96200000000001 150.461 35.55700000000001 C 150.461 35.55700000000001 138.324 28.140000000000008 117.16900000000001 0.8330000000000126 C 117.16900000000001 0.8330000000000126 117.64900000000002 31.859000000000012 84.79100000000001 47.573000000000015" stroke-linecap="round" />
</g>
		<g transform="matrix(1 0 0 1 25.5 122.29)"  >
<path style="stroke: none; stroke-width: 1; stroke-dasharray: none; stroke-linecap: butt; stroke-dashoffset: 0; stroke-linejoin: miter; stroke-miterlimit: 4; fill: rgb(240,240,240); fill-rule: nonzero; opacity: 1;" vector-effect="non-scaling-stroke"  transform=" translate(-153.91, -270.08)" d="M 115.653 270.238 C 111.17500000000001 267.126 112.24000000000001 257.216 124.375 264.296 C 124.375 264.296 150.215 283.27299999999997 191.126 260.504 C 194.30700000000002 258.73400000000004 198.20600000000002 264.97900000000004 188.092 270.704 C 188.092 270.704 146.752 291.856 115.65300000000002 270.238 z" stroke-linecap="round" />
</g>
		<g transform="matrix(1 0 0 1 25.5 122.29)"  >
<path style="stroke: rgb(255,253,255); stroke-width: 1; stroke-dasharray: none; stroke-linecap: butt; stroke-dashoffset: 0; stroke-linejoin: miter; stroke-miterlimit: 4; fill: none; fill-rule: nonzero; opacity: 1;" vector-effect="non-scaling-stroke"  transform=" translate(-153.91, -270.08)" d="M 115.653 270.238 C 111.17500000000001 267.126 112.24000000000001 257.216 124.375 264.296 C 124.375 264.296 150.215 283.27299999999997 191.126 260.504 C 194.30700000000002 258.73400000000004 198.20600000000002 264.97900000000004 188.092 270.704 C 188.092 270.704 146.752 291.856 115.65300000000002 270.238 z" stroke-linecap="round" />
</g>
		<g transform="matrix(1 0 0 1 35.76 92.73)"  >
<path style="stroke: none; stroke-width: 1; stroke-dasharray: none; stroke-linecap: butt; stroke-dashoffset: 0; stroke-linejoin: miter; stroke-miterlimit: 4; fill: rgb(240,240,240); fill-rule: nonzero; opacity: 1;" vector-effect="non-scaling-stroke"  transform=" translate(-164.17, -240.52)" d="M 168.37 238.76 C 183.415 240.522 178.24200000000002 247.756 182.278 248.87199999999999 C 190.494 251.14899999999997 186.95499999999998 242.172 186.95499999999998 242.172 C 180.885 230.036 170.39299999999997 230.795 170.39299999999997 230.795 C 153.95899999999997 228.266 141.69599999999997 243.94299999999998 141.69599999999997 243.94299999999998 C 138.66099999999997 250.642 142.90599999999998 250.987 144.47599999999997 250.26399999999998 C 152.44099999999997 246.59699999999998 157.28599999999997 237.45899999999997 168.36999999999998 238.76 z" stroke-linecap="round" />
</g>
		<g transform="matrix(1 0 0 1 35.76 92.73)"  >
<path style="stroke: rgb(255,253,255); stroke-width: 1; stroke-dasharray: none; stroke-linecap: butt; stroke-dashoffset: 0; stroke-linejoin: miter; stroke-miterlimit: 4; fill: none; fill-rule: nonzero; opacity: 1;" vector-effect="non-scaling-stroke"  transform=" translate(-164.17, -240.52)" d="M 168.37 238.76 C 183.415 240.522 178.24200000000002 247.756 182.278 248.87199999999999 C 190.494 251.14899999999997 186.95499999999998 242.172 186.95499999999998 242.172 C 180.885 230.036 170.39299999999997 230.795 170.39299999999997 230.795 C 153.95899999999997 228.266 141.69599999999997 243.94299999999998 141.69599999999997 243.94299999999998 C 138.66099999999997 250.642 142.90599999999998 250.987 144.47599999999997 250.26399999999998 C 152.44099999999997 246.59699999999998 157.28599999999997 237.45899999999997 168.36999999999998 238.76 z" stroke-linecap="round" />
</g>
		<g transform="matrix(1 0 0 1 -13.33 -26.96)"  >
<path style="stroke: none; stroke-width: 1; stroke-dasharray: none; stroke-linecap: butt; stroke-dashoffset: 0; stroke-linejoin: miter; stroke-miterlimit: 4; fill: rgb(0,142,206); fill-rule: nonzero; opacity: 1;" vector-effect="non-scaling-stroke"  transform=" translate(-115.08, -120.84)" d="M 17.597 231.53 C 17.597 231.53 63.314 269.354 174.565 185.09 C 174.565 185.09 230.444 150.011 228.76 89.866 C 228.76 89.866 210.678 63.878 180.166 50.476 C 175.826 48.569 137.699 27.765 117.109 1.676000000000002 C 117.109 1.676000000000002 113.377 77.361 16.438999999999993 107.241 C 16.438999999999993 107.241 -7.988000000000007 143.269 5.3289999999999935 201.825 C 5.3289999999999935 201.825 13.851999999999993 225.565 17.596999999999994 231.53099999999998" stroke-linecap="round" />
</g>
		<g transform="matrix(1 0 0 1 22.7 59.75)"  >
<path style="stroke: none; stroke-width: 1; stroke-dasharray: none; stroke-linecap: butt; stroke-dashoffset: 0; stroke-linejoin: miter; stroke-miterlimit: 4; fill: rgb(240,240,240); fill-rule: nonzero; opacity: 1;" vector-effect="non-scaling-stroke"  transform=" translate(-151.11, -207.54)" d="M 90.115 245.587 C 90.115 245.587 52.187999999999995 246.59699999999998 56.739999999999995 206.142 C 56.739999999999995 206.142 64.66199999999999 160.63 117.92699999999999 170.744 C 117.92699999999999 170.744 129.56 173.272 151.304 189.96 C 151.304 189.96 165.653 201.02200000000002 173.554 200.81400000000002 C 173.554 200.81400000000002 179.685 201.401 192.434 193.33200000000002 C 192.434 193.33200000000002 218.433 173.26900000000003 227.522 173.86400000000003 C 227.748 173.87900000000002 245.867 171.88300000000004 245.867 201.08600000000004 C 245.867 201.08600000000004 246.203 233.28200000000004 221.932 244.06900000000005 C 221.932 244.06900000000005 215.52599999999998 246.26000000000005 208.61399999999998 239.01200000000006 C 208.61399999999998 239.01200000000006 188.724 216.42500000000007 178.94699999999997 212.71600000000007 C 178.94699999999997 212.71600000000007 173.301 210.50400000000008 165.79899999999998 213.22200000000007 C 165.79899999999998 213.22200000000007 160.91099999999997 213.72800000000007 140.85399999999998 227.04400000000007 C 140.85399999999998 227.04400000000007 107.13899999999998 248.11400000000006 90.11499999999998 245.58700000000007 z" stroke-linecap="round" />
</g>
		<g transform="matrix(1 0 0 1 22.7 59.75)"  >
<path style="stroke: rgb(255,253,255); stroke-width: 1; stroke-dasharray: none; stroke-linecap: butt; stroke-dashoffset: 0; stroke-linejoin: miter; stroke-miterlimit: 4; fill: none; fill-rule: nonzero; opacity: 1;" vector-effect="non-scaling-stroke"  transform=" translate(-151.11, -207.54)" d="M 90.115 245.587 C 90.115 245.587 52.187999999999995 246.59699999999998 56.739999999999995 206.142 C 56.739999999999995 206.142 64.66199999999999 160.63 117.92699999999999 170.744 C 117.92699999999999 170.744 129.56 173.272 151.304 189.96 C 151.304 189.96 165.653 201.02200000000002 173.554 200.81400000000002 C 173.554 200.81400000000002 179.685 201.401 192.434 193.33200000000002 C 192.434 193.33200000000002 218.433 173.26900000000003 227.522 173.86400000000003 C 227.748 173.87900000000002 245.867 171.88300000000004 245.867 201.08600000000004 C 245.867 201.08600000000004 246.203 233.28200000000004 221.932 244.06900000000005 C 221.932 244.06900000000005 215.52599999999998 246.26000000000005 208.61399999999998 239.01200000000006 C 208.61399999999998 239.01200000000006 188.724 216.42500000000007 178.94699999999997 212.71600000000007 C 178.94699999999997 212.71600000000007 173.301 210.50400000000008 165.79899999999998 213.22200000000007 C 165.79899999999998 213.22200000000007 160.91099999999997 213.72800000000007 140.85399999999998 227.04400000000007 C 140.85399999999998 227.04400000000007 107.13899999999998 248.11400000000006 90.11499999999998 245.58700000000007 z" stroke-linecap="round" />
</g>
		<g transform="matrix(1 0 0 1 -58.58 -77.73)"  >
<path style="stroke: none; stroke-width: 1; stroke-dasharray: none; stroke-linecap: butt; stroke-dashoffset: 0; stroke-linejoin: miter; stroke-miterlimit: 4; fill: rgb(0,142,206); fill-rule: nonzero; opacity: 1;" vector-effect="non-scaling-stroke"  transform=" translate(-69.83, -70.07)" d="M 110.174 100.454 C 134.729 65.28299999999999 117.10900000000001 0.6639999999999873 117.10900000000001 0.6639999999999873 C 114.94200000000001 35.72399999999999 85.36200000000001 47.29399999999999 85.36200000000001 47.29399999999999 C 32.39800000000001 70.154 16.439000000000007 106.22899999999998 16.439000000000007 106.22899999999998 C 27.78900000000001 122.32399999999998 57.919000000000004 175.29399999999998 110.174 100.45399999999998" stroke-linecap="round" />
</g>
		<g transform="matrix(1 0 0 1 -57.47 -87.88)"  >
<path style="stroke: none; stroke-width: 1; stroke-dasharray: none; stroke-linecap: butt; stroke-dashoffset: 0; stroke-linejoin: miter; stroke-miterlimit: 4; fill: rgb(160,216,241); fill-rule: nonzero; opacity: 1;" vector-effect="non-scaling-stroke"  transform=" translate(-70.94, -59.91)" d="M 117.109 0.664 C 117.109 0.664 120.28699999999999 30.164 104.274 39.771 C 104.274 39.771 78.593 51.725 70.75399999999999 55.644 C 70.75399999999999 55.644 37.77499999999999 75.549 26.90399999999999 94.258 C 26.90399999999999 94.258 3.641999999999989 125.386 35.75399999999999 118.02699999999999 C 35.75399999999999 118.02699999999999 93.82399999999998 101.63299999999998 117.42399999999999 52.15999999999998 C 117.42399999999999 52.15999999999998 118.81299999999999 47.98899999999998 114.38699999999999 43.68999999999998 C 114.38699999999999 43.68999999999998 132.088 30.331999999999983 117.10899999999998 0.6639999999999802" stroke-linecap="round" />
</g>
		<g transform="matrix(1 0 0 1 -57.75 -91.91)"  >
<path style="stroke: none; stroke-width: 1; stroke-dasharray: none; stroke-linecap: butt; stroke-dashoffset: 0; stroke-linejoin: miter; stroke-miterlimit: 4; fill: rgb(240,240,240); fill-rule: nonzero; opacity: 1;" vector-effect="non-scaling-stroke"  transform=" translate(-70.66, -55.88)" d="M 117.109 0.664 C 117.109 0.664 118.43299999999999 20.808 101.711 37.498000000000005 C 101.711 37.498000000000005 96.689 44.575 70.75399999999999 55.644000000000005 C 70.75399999999999 55.644000000000005 41.06399999999999 71.12400000000001 27.752999999999993 92.59200000000001 C 27.752999999999993 92.59200000000001 8.025999999999993 116.388 35.07599999999999 110.00800000000001 C 35.07599999999999 110.00800000000001 89.88499999999999 89.80900000000001 109.96799999999999 52.71800000000001 C 109.96799999999999 52.71800000000001 112.68499999999999 48.82000000000001 108.54999999999998 44.80400000000001 C 108.54999999999998 44.80400000000001 128.213 29.44700000000001 117.10899999999998 0.6640000000000086" stroke-linecap="round" />
</g>
</g>
</g>
<g transform="matrix(1 0 0 1 385.61 172.92)" style="" id="3eb1385c-6cb2-40b5-9c3a-2f5a5ab04c8d"  >
		<text xml:space="preserve" font-family="Alegreya" font-size="142" font-style="normal" font-weight="800" style="stroke: none; stroke-width: 1; stroke-dasharray: none; stroke-linecap: butt; stroke-dashoffset: 0; stroke-linejoin: miter; stroke-miterlimit: 4; fill: rgb(7,126,198); fill-rule: nonzero; opacity: 1; white-space: pre;" ><tspan x="-81.72" y="44.61" >F</tspan><tspan x="2.75" y="44.61" >S</tspan></text>
</g>
<g transform="matrix(1 0 0 1 681.92 185.65)" style="" id="e35354ea-d10f-490f-b8de-0dba62975722"  >
		<text xml:space="preserve" font-family="Alegreya" font-size="80" font-style="normal" font-weight="700" style="stroke: none; stroke-width: 1; stroke-dasharray: none; stroke-linecap: butt; stroke-dashoffset: 0; stroke-linejoin: miter; stroke-miterlimit: 4; fill: rgb(0,0,0); fill-rule: nonzero; opacity: 1; white-space: pre;" ><tspan x="-194.81" y="28.9" style="stroke-width: 1; font-family: 'Alegreya'; font-size: 92px; font-style: normal; font-weight: 700; fill: rgb(7,126,198); ">Subtheme</tspan></text>
</g>
</svg>